/* XPM */
static char *blgreen[] = {
/* columns rows colors chars-per-pixel */
"70 15 62 1 ",
"  c #000200",
". c #000500",
"X c #000900",
"o c #000D00",
"O c #001000",
"+ c #001400",
"@ c #001800",
"# c #001F00",
"$ c #002300",
"% c #002600",
"& c #002A00",
"* c #002E00",
"= c #003100",
"- c #003500",
"; c #003800",
": c #003C00",
"> c #004300",
", c #004700",
"< c #004B00",
"1 c #004E00",
"2 c #005200",
"3 c #005600",
"4 c #005900",
"5 c #005D00",
"6 c #006400",
"7 c #006800",
"8 c #006C00",
"9 c #006F00",
"0 c #007300",
"q c #007700",
"w c #007A00",
"e c #007E00",
"r c #008200",
"t c #008500",
"y c #008800",
"u c #008C00",
"i c #009000",
"p c #009300",
"a c #009700",
"s c #009E00",
"d c #00A200",
"f c #00A600",
"g c #00A900",
"h c #00AD00",
"j c #00B100",
"k c #00B400",
"l c #00B800",
"z c #00BC00",
"x c #00C300",
"c c #00C700",
"v c #00CE00",
"b c #00D100",
"n c #00D500",
"m c #00D900",
"M c #00DC00",
"N c #00E000",
"B c #00E400",
"V c #00E700",
"C c #00EF00",
"Z c #00F200",
"A c #00F600",
"S c #00FD00",
/* pixels */
" .XoO+@@$$%&*=-;:>>,<12345767800wwertyuipassdfghjklzzxccbbnmMNBVZCZASS",
" .XoO+@##$%&*=-;::>,<123454678800werttuipaasdfghjklzxxcvvbnmMNBVBCZASS",
" .XoO++##$%&*=-;:>>,<12345767880wwertyuipassdfghjklzzxccvbnmMNBVZCZAAS",
" .XoO+@@#$%&*=-;::>,<123454677000eertyuipaasdfghjklzxxcvvbnmMNBVBCZASS",
" .XoO+@##$%&*=-;::,,<123457677000wertyuipaasdfghjklzxxcvvbnmMNBVZCZASS",
" .XoO++##$%&*=-;:>>,<12345467880wwertyuipassdfghjklzzxccvbnmMNBVBCZAAS",
" .XoO+@##$%&*=-;::>,<12345777880wwertyuipaasdfghjklzxxcvvbnmMNBVZCZASS",
" .XoO+@@#$%&*=-;::>,<123454778000wertyuipassdfghjklzzxccvbnmMNBVBZZAAS",
" .XoO++##$%&*=-;:>>,<12345667880wwertyuipaaddfghjklzxxccvbnmMNBVBZZASS",
" .XoO+@@#$%&*=-;::>,<123454677000eertyuipaasdfghjklzzxcvvbnmMNBVCCZAAS",
" .XoO+@##$%&*=-;:>>,<123454778000wertyuipassdfghjklzxxcvvbnmMNBVBZZASS",
" .XoO+@##$%&*=-;::>,<12345777880wwertyuipaasdfghjklzzxxvvbnmMNBVCCZAAS",
" .XoO+@@#$%&*=-;:>>,<123457678800eertyuipassdfghjklzzxxcvbnmMNBVBZZASS",
" .XoO+@##$%&*=-;::>,<123454678000wertyuipaasdfghjklzxxcvvbnmMNBVCCZASS",
" .XoO+@@#$%&*=-;:>>,<12343767800wwertyuipassdfghjklzxxccvbnmMNBVVZZZSS"
};
