/* XPM */
static char *magick[] = {
/* columns rows colors chars-per-pixel */
"70 15 70 1",
"  c Gray0",
". c #00000d",
"X c #000025",
"o c #000039",
"O c #000054",
"+ c #000069",
"@ c #00007e",
"# c #000092",
"$ c #0000a7",
"% c #0000bc",
"& c #0000d1",
"* c #0000e7",
"= c #0005fd",
"- c #0016ff",
"; c #002cff",
": c #0041ff",
"> c #0056ff",
", c #006bff",
"< c #007eff",
"1 c #00ff07",
"2 c #0bff00",
"3 c #00ff24",
"4 c #00ff39",
"5 c #21ff00",
"6 c #36ff00",
"7 c #00ff4e",
"8 c #00ff63",
"9 c #00ff78",
"0 c #4bff00",
"q c #60ff00",
"w c #75ff00",
"e c #0097ff",
"r c #00b0ff",
"t c #00ff8c",
"y c #00ffa1",
"u c #00ffb7",
"i c #00c4ff",
"p c #00d9ff",
"a c #00ffd2",
"s c #00efff",
"d c #00ffe6",
"f c #00fcf8",
"g c #ff0905",
"h c #ff1900",
"j c #ff1516",
"k c #ff2f00",
"l c #ff2b2b",
"z c #ff4400",
"x c #ff5900",
"c c #ff6e00",
"v c #ff4040",
"b c #ff5555",
"n c #ff6a6a",
"m c #ff7e7e",
"M c #89ff00",
"N c #9fff00",
"B c #baff00",
"V c #ff8300",
"C c #ff9600",
"Z c #ffaf00",
"A c #ceff00",
"S c #ffc800",
"D c #ffdc00",
"F c #e3ff00",
"G c #f6fd00",
"H c #fff200",
"J c #ff9393",
"K c #ffaeae",
"L c #ffc2c2",
"P c #ffdada",
/* pixels */
" .XoO+@#$%&*=-;:>,<eripsfdauyt9874312560qwMNBAFGHDSZCVcxzkhgjlvbnmJKLP",
" .XoO+@#$%&*=-;:>,<eripsfdauyt9874312560qwMNBAFGHDSZCVcxzkhgjlvbnmJKLP",
" .XoO+@#$%&*=-;:>,<eripsfdauyt9874312560qwMNBAFGHDSZCVcxzkhgjlvbnmJKLP",
" .XoO+@#$%&*=-;:>,<eripsfdauyt9874312560qwMNBAFGHDSZCVcxzkhgjlvbnmJKLP",
" .XoO+@#$%&*=-;:>,<eripsfdauyt9874312560qwMNBAFGHDSZCVcxzkhgjlvbnmJKLP",
" .XoO+@#$%&*=-;:>,<eripsfdauyt9874312560qwMNBAFGHDSZCVcxzkhgjlvbnmJKLP",
" .XoO+@#$%&*=-;:>,<eripsfdauyt9874312560qwMNBAFGHDSZCVcxzkhgjlvbnmJKLP",
" .XoO+@#$%&*=-;:>,<eripsfdauyt9874312560qwMNBAFGHDSZCVcxzkhgjlvbnmJKLP",
" .XoO+@#$%&*=-;:>,<eripsfdauyt9874312560qwMNBAFGHDSZCVcxzkhgjlvbnmJKLP",
" .XoO+@#$%&*=-;:>,<eripsfdauyt9874312560qwMNBAFGHDSZCVcxzkhgjlvbnmJKLP",
" .XoO+@#$%&*=-;:>,<eripsfdauyt9874312560qwMNBAFGHDSZCVcxzkhgjlvbnmJKLP",
" .XoO+@#$%&*=-;:>,<eripsfdauyt9874312560qwMNBAFGHDSZCVcxzkhgjlvbnmJKLP",
" .XoO+@#$%&*=-;:>,<eripsfdauyt9874312560qwMNBAFGHDSZCVcxzkhgjlvbnmJKLP",
" .XoO+@#$%&*=-;:>,<eripsfdauyt9874312560qwMNBAFGHDSZCVcxzkhgjlvbnmJKLP",
" .XoO+@#$%&*=-;:>,<eripsfdauyt9874312560qwMNBAFGHDSZCVcxzkhgjlvbnmJKLP"
};
