/* XPM */
static char *magick[] = {
/* columns rows colors chars-per-pixel */
"70 15 88 1",
"  c #06080a",
". c #06080b",
"X c #06090b",
"o c #07090b",
"O c #10100f",
"+ c #1a130b",
"@ c #1c140b",
"# c #1e150c",
"$ c #1f150c",
"% c #1f160d",
"& c #131313",
"* c #161616",
"= c #191919",
"- c #1d1d1d",
"; c Gray13",
": c Gray14",
"> c #282828",
", c Gray17",
"< c #2f2f2f",
"1 c Gray20",
"2 c Gray21",
"3 c #3a3a3a",
"4 c #3e3e3e",
"5 c #414141",
"6 c #444444",
"7 c #484848",
"8 c #4b4b4b",
"9 c Gray31",
"0 c #535353",
"q c #565656",
"w c #5a5a5a",
"e c #5d5d5d",
"r c Gray38",
"t c #656565",
"y c #686868",
"u c Gray42",
"i c #6f6f6f",
"p c #727272",
"a c #767676",
"s c Gray48",
"d c Gray49",
"f c #9c5f23",
"g c #a2601e",
"h c #b16a23",
"j c #b26923",
"k c #b26a23",
"l c #b16b24",
"z c #b36c21",
"x c #b36c23",
"c c #b36c24",
"v c #b56c21",
"b c #b56f26",
"n c #b66e24",
"m c #818181",
"M c #838383",
"N c Gray53",
"B c #8b8b8b",
"V c #8e8e8e",
"C c #929292",
"Z c #959595",
"A c #989898",
"S c Gray61",
"D c #a0a0a0",
"F c Gray64",
"G c #a7a7a7",
"H c #aaaaaa",
"J c #aeaeae",
"K c #b2b2b2",
"L c Gray71",
"P c #b9b9b9",
"I c Gray74",
"U c #c0c0c0",
"Y c #c3c3c3",
"T c Gray78",
"R c #cacaca",
"E c #cecece",
"W c #d2d2d2",
"Q c #d5d5d5",
"! c Gray85",
"~ c gainsboro",
"^ c Gray88",
"/ c #e4e4e4",
"( c #e7e7e7",
") c #eaeaea",
"_ c #eeeeee",
"` c #f1f1f1",
"' c Gray96",
"] c #f9f9f9",
/* pixels */
"z$.O&*=-;:>,11134568890qwertyyipasdmmNBVCZASDDFHJKLPIUTTREWQ!~^/))_`']",
"v$.O&*=-;:>,,1134568890qwertyiipasdmmBBVCZASDDHHJKLPIUUTREWQ!~^//)_`']",
"v$.O&*=-;:>>11334558890qwertyyipasdmmNBVCZASDFHHJKLPIUUTREWQ!~^//)_`']",
"n$.O&*=-;:>>,1134566890qwertyyipasdmmNBVCZASDFFHJKLPIUUTREWQ!~^/))_`']",
"c$.O&*=-;:>,11134568890qwertyyipasdmNNBVCZASDFHHJKLPIUTTREWQ!~^//)_`']",
"k$.O&*=-;:>,,1134568890qwertyyipasdmmNBVCZASDFFHJKLPIUUTREWQ!~^/))_`']",
"k$.O&*=-;:>,11334558890qwertyyipasdmmNBVCZASDFFHJKLPIUUTREWQ!~^//)_`']",
"z$.O&*=-;:>,,1134568890qwertyiipasdmmNBVCZASDFHHJKLPIUURREWQ!~^//)_`']",
"g@.O&*=-;:>,11134568890qwertyyipasdmmNBVCZASDFHHJKLPIUUTREWQ!~^//)_`']",
"f+.O&*=-;:>,,1134568890qwertyyipasdmmNBVCZASDFFHJKLPIUUTREWQ!~^/))_`']",
"n$.O&*=-;:>>11334558890qwertyiipasdmmBBVCZASDFFHJKLPIUTTREWQ!~^//)_`']",
"l$.O&*=-;:>>,1134566890qwertyyipasdmmNBVCZASDDHHJKLPIUUTREWQ!~^//)_`']",
"k$.O&*=-;:>,11134568890qwertyiipasdmmNBVCZASDDHHJKLPIUUTREWQ!~^/))_`']",
"k$.O&*=-;:>,,1134568890qwertyyipasdmmNBVCZASDDFHJKLPIUURREWQ!~^//)_`']",
"c$.O**=-;:>,,1334568890qwertyyipasdmmBBVCZASDFHHJKLPIUUTREWQ!~^//)_`']"
};
