/* XPM */
static char *magick[] = {
/* columns rows colors chars-per-pixel */
"70 15 70 1",
"  c #0f0fff",
". c #1414ff",
"X c #1c1cff",
"o c #2323ff",
"O c #2929ff",
"+ c #3030ff",
"@ c #3737ff",
"# c #3e3eff",
"$ c #4545ff",
"% c #4d4dff",
"& c #5454ff",
"* c #5b5bff",
"= c #6262ff",
"- c #6969ff",
"; c #7070ff",
": c #7878ff",
"> c #7f7fff",
", c #ff0404",
"< c #ff0c0c",
"1 c #ff1313",
"2 c #ff1a1a",
"3 c #ff2222",
"4 c #ff2828",
"5 c #ff2e2e",
"6 c #ff3535",
"7 c #ff3d3d",
"8 c #ff4444",
"9 c #ff4b4b",
"0 c #ff5252",
"q c #ff5959",
"w c #ff6060",
"e c #ff6868",
"r c #ff6f6f",
"t c #ff7676",
"y c #ff7c7c",
"u c #8484ff",
"i c #8b8bff",
"p c #9292ff",
"a c #9999ff",
"s c #a0a0ff",
"d c #a7a7ff",
"f c #aeaeff",
"g c #b6b6ff",
"h c #bdbdff",
"j c #ff8282",
"k c #ff8989",
"l c #ff9090",
"z c #ff9797",
"x c #ff9e9e",
"c c #ffa6a6",
"v c #ffadad",
"b c #ffb4b4",
"n c #ffbbbb",
"m c #c4c4ff",
"M c #cbcbff",
"N c #d1d1ff",
"B c #d8d8ff",
"V c #dfdfff",
"C c #ffc2c2",
"Z c #ffcaca",
"A c #ffd0d0",
"S c #ffd6d6",
"D c #ffdddd",
"F c #e6e6ff",
"G c #ededff",
"H c #ffe5e5",
"J c #ffecec",
"K c #f5f5ff",
"L c #fff3f3",
"P c #fcf8fb",
/* pixels */
" .XoO+@#$%&*=-;:>uipasdfghmMNBVFGKPLJHDSAZCnbvcxzlkjytrewq0987654321<,",
" .XoO+@#$%&*=-;:>uipasdfghmMNBVFGKPLJHDSAZCnbvcxzlkjytrewq0987654321<,",
" .XoO+@#$%&*=-;:>uipasdfghmMNBVFGKPLJHDSAZCnbvcxzlkjytrewq0987654321<,",
" .XoO+@#$%&*=-;:>uipasdfghmMNBVFGKPLJHDSAZCnbvcxzlkjytrewq0987654321<,",
" .XoO+@#$%&*=-;:>uipasdfghmMNBVFGKPLJHDSAZCnbvcxzlkjytrewq0987654321<,",
" .XoO+@#$%&*=-;:>uipasdfghmMNBVFGKPLJHDSAZCnbvcxzlkjytrewq0987654321<,",
" .XoO+@#$%&*=-;:>uipasdfghmMNBVFGKPLJHDSAZCnbvcxzlkjytrewq0987654321<,",
" .XoO+@#$%&*=-;:>uipasdfghmMNBVFGKPLJHDSAZCnbvcxzlkjytrewq0987654321<,",
" .XoO+@#$%&*=-;:>uipasdfghmMNBVFGKPLJHDSAZCnbvcxzlkjytrewq0987654321<,",
" .XoO+@#$%&*=-;:>uipasdfghmMNBVFGKPLJHDSAZCnbvcxzlkjytrewq0987654321<,",
" .XoO+@#$%&*=-;:>uipasdfghmMNBVFGKPLJHDSAZCnbvcxzlkjytrewq0987654321<,",
" .XoO+@#$%&*=-;:>uipasdfghmMNBVFGKPLJHDSAZCnbvcxzlkjytrewq0987654321<,",
" .XoO+@#$%&*=-;:>uipasdfghmMNBVFGKPLJHDSAZCnbvcxzlkjytrewq0987654321<,",
" .XoO+@#$%&*=-;:>uipasdfghmMNBVFGKPLJHDSAZCnbvcxzlkjytrewq0987654321<,",
" .XoO+@#$%&*=-;:>uipasdfghmMNBVFGKPLJHDSAZCnbvcxzlkjytrewq0987654321<,"
};
