/* XPM */
static char *viridis[] = {
/* columns rows colors chars-per-pixel */
"70 15 70 1 ",
"  c #440256",
". c #45075B",
"X c #460D60",
"o c #471265",
"O c #47176A",
"+ c #481C6E",
"@ c #472576",
"# c #482172",
"$ c #472A79",
"% c #462F7C",
"& c #45337F",
"* c #29AF7E",
"= c #2EB27C",
"- c #3FBC73",
"; c #38B976",
": c #33B679",
"> c #45BF6F",
", c #7CD24F",
"< c #62CA5E",
"1 c #6BCD59",
"2 c #73CF54",
"3 c #4CC26B",
"4 c #53C567",
"5 c #5BC863",
"6 c #98D83D",
"7 c #BFDF24",
"8 c #B5DD2B",
"9 c #A1DA37",
"0 c #ABDB31",
"q c #C8E01F",
"w c #D2E11B",
"e c #DBE218",
"r c #E5E318",
"t c #EFE51B",
"y c #F7E620",
"u c #8ED644",
"i c #85D449",
"p c #443882",
"a c #433C84",
"s c #3E4989",
"d c #3C4D8A",
"f c #3B518A",
"g c #39558B",
"h c #37588C",
"j c #355C8C",
"k c #2F6B8E",
"l c #2D6E8E",
"z c #33608D",
"x c #32638D",
"c c #30678D",
"v c #2C728E",
"b c #2A768E",
"n c #277C8E",
"m c #29798E",
"M c #414086",
"N c #404587",
"B c #1F948B",
"V c #1E9B89",
"C c #1E988A",
"Z c #1E9E88",
"A c #25838D",
"S c #26808E",
"D c #23878D",
"F c #228A8D",
"G c #218D8C",
"H c #20918C",
"J c #1FA286",
"K c #20A585",
"L c #23A883",
"P c #26AC81",
/* pixels */
" .XoO+#@$%&paMNsdfghjzxcklvbmnSAFFGHBCVZJKLPP=:;->345<12,iu69087qwerty",
" .XoO+#@$%&paMNsdfghjzxcklvbmnSAAFGHBCVZJKLP*=:;->345<12,iu69087qwerty",
" .XoO+#@$%&paMNsdfghjzxcklvbmnSAFFGHBCVZJKLP*=:;->345<12,iu69087qwerty",
" .XoO+#@$%&paMNsdfghjzxcklvbmnSADFGHBCVZJKLP*=:;->345<12,iu69087qwerty",
" .XoO+#@$%&paMNsdfghjzxcklvbmnSADFGHBCVZJKLP*=:;->345<12,iu69087qwerty",
" .XoO+#@$%&paMNsdfghjzxcklvbmnSADFGHBCVZJKLP*=:;->345<12,iu69087qwerty",
" .XoO+#@$%&paMNsdfghjzxcklvbmnnADFGHBCVZJKPP*=:;->345<12,iu69087qwerty",
" .XoO+#@$%&paMNsdfghjzxcklvbmnSADFGHBCVZJKLP*=:;->345<12,iu69087qwerty",
" .XoO+#@$%&paMNsdfghjzxcklvbmnnADFGHBCVZJKLP*=:;->345<12,iu69087qwerty",
" .XoO+#@$%&paMNsdfghjzxcklvbmnAADFGHBCVZJKLP*=:;->345<12,iu69087qwerty",
" .XoO+#@$%&paMNsdfghjzxcklvbmnAADFGHBCVZJKLPP=:;->345<12,iu69087qwerty",
" .XoO+#@$%&paMNsdfghjzxcklvbmnnADFGHBCVZJKLP==:;->345<12,iu69087qwerty",
" .XoO+#@$%&paMNsdfghjzxcklvbmnnADFGHBCVZJKLPP=:;->345<12,iu69087qwerty",
" .XoO+#@$%&paMNsdfghjzxcklvbmnAADFGHBCVZJKLP==:;->345<12,iu69087qwerty",
" .XoO+#@$%&paMNsdfghjzxcklvbbnAADFGHBCVZJKLPP=:;->345<12,iu69087qwerty"
};
