/* XPM */
static char *acid_trip[] = {
/* columns rows colors chars-per-pixel */
"70 15 70 1 ",
"  c #FFFF03",
". c #FFFF0B",
"X c #FFFF12",
"o c #FFFF19",
"O c #FFFF21",
"+ c #FFFF28",
"@ c #FFFF2F",
"# c #FFFF37",
"$ c #FFFF3E",
"% c #FFFF45",
"& c #FFFF4C",
"* c #FFFF54",
"= c #FFFF5B",
"- c #FFFF62",
"; c #FFFF6A",
": c #FFFF71",
"> c #FFFF78",
", c #FF03FF",
"< c #FF0BFF",
"1 c #FF12FF",
"2 c #FF19FF",
"3 c #FF21FF",
"4 c #FF28FF",
"5 c #FF2FFF",
"6 c #FF37FF",
"7 c #FF3EFF",
"8 c #FF45FF",
"9 c #FF4CFF",
"0 c #FF54FF",
"q c #FF5BFF",
"w c #FF62FF",
"e c #FF6AFF",
"r c #FF71FF",
"t c #FF78FF",
"y c #FFFF80",
"u c #FFFF87",
"i c #FFFF8E",
"p c #FFFF96",
"a c #FFFF9D",
"s c #FFFFA4",
"d c #FFFFAB",
"f c #FFFFB2",
"g c #FFFFBA",
"h c #FF80FF",
"j c #FF87FF",
"k c #FF8EFF",
"l c #FF96FF",
"z c #FF9DFF",
"x c #FFA4FF",
"c c #FFABFF",
"v c #FFB2FF",
"b c #FFBAFF",
"n c #FFFFC1",
"m c #FFFFC8",
"M c #FFFFD0",
"N c #FFFFD7",
"B c #FFFFDE",
"V c #FFC1FF",
"C c #FFC8FF",
"Z c #FFD0FF",
"A c #FFD7FF",
"S c #FFDEFF",
"D c #FFFFE5",
"F c #FFFFED",
"G c #FFE5FF",
"H c #FFEDFF",
"J c #FFFFF4",
"K c #FFF4FF",
"L c #FFFFFB",
"P c #FFFBFF",
/* pixels */
",<1234567890qwerthjklzxcvbVCZASGHKPLJFDBNMmngfdsapiuy>:;-=*&%$#@+OoX. ",
",<1234567890qwerthjklzxcvbVCZASGHKPLJFDBNMmngfdsapiuy>:;-=*&%$#@+OoX. ",
",<1234567890qwerthjklzxcvbVCZASGHKPLJFDBNMmngfdsapiuy>:;-=*&%$#@+OoX. ",
",<1234567890qwerthjklzxcvbVCZASGHKPLJFDBNMmngfdsapiuy>:;-=*&%$#@+OoX. ",
",<1234567890qwerthjklzxcvbVCZASGHKPLJFDBNMmngfdsapiuy>:;-=*&%$#@+OoX. ",
",<1234567890qwerthjklzxcvbVCZASGHKPLJFDBNMmngfdsapiuy>:;-=*&%$#@+OoX. ",
",<1234567890qwerthjklzxcvbVCZASGHKPLJFDBNMmngfdsapiuy>:;-=*&%$#@+OoX. ",
",<1234567890qwerthjklzxcvbVCZASGHKPLJFDBNMmngfdsapiuy>:;-=*&%$#@+OoX. ",
",<1234567890qwerthjklzxcvbVCZASGHKPLJFDBNMmngfdsapiuy>:;-=*&%$#@+OoX. ",
",<1234567890qwerthjklzxcvbVCZASGHKPLJFDBNMmngfdsapiuy>:;-=*&%$#@+OoX. ",
",<1234567890qwerthjklzxcvbVCZASGHKPLJFDBNMmngfdsapiuy>:;-=*&%$#@+OoX. ",
",<1234567890qwerthjklzxcvbVCZASGHKPLJFDBNMmngfdsapiuy>:;-=*&%$#@+OoX. ",
",<1234567890qwerthjklzxcvbVCZASGHKPLJFDBNMmngfdsapiuy>:;-=*&%$#@+OoX. ",
",<1234567890qwerthjklzxcvbVCZASGHKPLJFDBNMmngfdsapiuy>:;-=*&%$#@+OoX. ",
",<1234567890qwerthjklzxcvbVCZASGHKPLJFDBNMmngfdsapiuy>:;-=*&%$#@+OoX. "
};
