/* XPM */
static char * cg_xpm[] = {
"70 15 164 2",
"  	c None",
". 	c #0000FF",
"+ 	c #000BFF",
"@ 	c #0019FF",
"# 	c #0029FF",
"$ 	c #0037FF",
"% 	c #0045FF",
"& 	c #0055FF",
"* 	c #0063FF",
"= 	c #0072FF",
"- 	c #0081FF",
"; 	c #008FFF",
"> 	c #009EFF",
", 	c #00ACFF",
"' 	c #00BBFF",
") 	c #00CAFF",
"! 	c #00D9FF",
"~ 	c #00E7FF",
"{ 	c #00F7FF",
"] 	c #00FFF9",
"^ 	c #00FFEA",
"/ 	c #00FFDB",
"( 	c #00FFCD",
"_ 	c #00FFBF",
": 	c #00FFB0",
"< 	c #00FFA1",
"[ 	c #00FF92",
"} 	c #00FF83",
"| 	c #00FF75",
"1 	c #00FF66",
"2 	c #00FF58",
"3 	c #00FF49",
"4 	c #00FF3A",
"5 	c #00FF2B",
"6 	c #00FF1C",
"7 	c #00FF0E",
"8 	c #01FF00",
"9 	c #0FFF00",
"0 	c #1FFF00",
"a 	c #2CFF00",
"b 	c #3BFF00",
"c 	c #4BFF00",
"d 	c #59FF00",
"e 	c #68FF00",
"f 	c #77FF00",
"g 	c #86FF00",
"h 	c #93FF00",
"i 	c #A2FF00",
"j 	c #B1FF00",
"k 	c #C0FF00",
"l 	c #CFFF00",
"m 	c #DEFF00",
"n 	c #ECFF00",
"o 	c #FAFF00",
"p 	c #FFF400",
"q 	c #FFE600",
"r 	c #FFD700",
"s 	c #FFC800",
"t 	c #FFB900",
"u 	c #FFAB00",
"v 	c #FF9D00",
"w 	c #FF8E00",
"x 	c #FF7F00",
"y 	c #FF7000",
"z 	c #FF6200",
"A 	c #FF5200",
"B 	c #FF4500",
"C 	c #FF3600",
"D 	c #FF2700",
"E 	c #FF1800",
"F 	c #FF0900",
"G 	c #001AFF",
"H 	c #0046FF",
"I 	c #0054FF",
"J 	c #0064FF",
"K 	c #0080FF",
"L 	c #00ADFF",
"M 	c #00F6FF",
"N 	c #00FFDC",
"O 	c #00FF93",
"P 	c #00FF84",
"Q 	c #00FF57",
"R 	c #00FF48",
"S 	c #00FF00",
"T 	c #10FF00",
"U 	c #1EFF00",
"V 	c #2DFF00",
"W 	c #3CFF00",
"X 	c #4AFF00",
"Y 	c #5AFF00",
"Z 	c #67FF00",
"` 	c #76FF00",
" .	c #85FF00",
"..	c #94FF00",
"+.	c #CEFF00",
"@.	c #FBFF00",
"#.	c #FFF500",
"$.	c #FFBA00",
"%.	c #FF9C00",
"&.	c #FF6100",
"*.	c #FF5300",
"=.	c #FF4400",
"-.	c #0090FF",
";.	c #00D8FF",
">.	c #00FFFA",
",.	c #00FFBE",
"'.	c #00FF74",
").	c #FFE500",
"!.	c #FF3500",
"~.	c #00BCFF",
"{.	c #00FFAF",
"].	c #00FF1D",
"^.	c #A3FF00",
"/.	c #DDFF00",
"(.	c #FF8D00",
"_.	c #FF7100",
":.	c #FF2600",
"<.	c #FF0A00",
"[.	c #0028FF",
"}.	c #0038FF",
"|.	c #009FFF",
"1.	c #00E8FF",
"2.	c #B2FF00",
"3.	c #FF7E00",
"4.	c #00FFEB",
"5.	c #C1FF00",
"6.	c #EDFF00",
"7.	c #00FFCC",
"8.	c #2EFF00",
"9.	c #00FF65",
"0.	c #FCFF00",
"a.	c #000CFF",
"b.	c #0073FF",
"c.	c #00CBFF",
"d.	c #FFD600",
"e.	c #FFC900",
"f.	c #FFAA00",
"g.	c #FF4300",
"h.	c #00DAFF",
"i.	c #00FFF8",
"j.	c #00FFA0",
"k.	c #00FF2A",
"l.	c #00FF0D",
"m.	c #02FF00",
"n.	c #0047FF",
"o.	c #00FF56",
"p.	c #00FF39",
"q.	c #FF9B00",
"r.	c #FF6F00",
"s.	c #00AEFF",
"t.	c #D0FF00",
"u.	c #FF1700",
"v.	c #00FFE9",
"w.	c #00FFBD",
"x.	c #00FF91",
"y.	c #69FF00",
"z.	c #95FF00",
"A.	c #FFF300",
"B.	c #FFC700",
"C.	c #FF0800",
"D.	c #0082FF",
"E.	c #00E9FF",
"F.	c #3DFF00",
"G.	c #4CFF00",
". + @ # $ % & * = - ; > , ' ) ! ~ { ] ^ / ( _ : < [ } | 1 2 3 4 5 6 7 8 9 0 a b c d e f g h i j k l m n o p q r s t u v w x y z A B C D E F ",
". + G # $ H I J = K ; > L ' ) ! ~ M ] ^ N ( _ : < O P | 1 Q R 4 5 6 7 S T U V W X Y Z `  ...i j k +.m n @.#.q r s $.u %.w x y &.*.=.C D E F ",
". + G # $ H & * = K -.> L ' ) ;.~ M >.^ N ( ,.: < [ P '.1 Q R 4 5 6 7 8 T U V W X d Z f  ...i j k +.m n @.p ).r s $.u v w x y &.*.=.!.D E F ",
". + G # $ H I * = - -.> L ~.) ! ~ M ] ^ / ( ,.{.< O P | 1 Q R 4 5 ].7 8 T 0 V W c d Z f g ..^.j k l /.n @.p ).r s $.u v (.x _.&.A =.C :.E <.",
". + G [.}.H & * = - ; |.L ~.) ! 1.M ] ^ N ( ,.{.< [ P | 1 Q 3 4 5 ].7 8 9 U V W X d e ` g ..^.2.k l m n @.p ).r s t u %.(.3.y z *.=.!.:.E <.",
". + G # $ H & J = K ; |., ' ) ! 1.M ] 4.N ( ,.{.< [ } '.1 Q 3 4 5 6 7 8 T U V W c d e `  ...^.2.5.l m 6.@.p q r s t u %.(.x y &.*.=.C D E F ",
". + G [.}.H & J = - ; > L ~.) ! 1.M ] ^ / 7.,.: < [ P | 1 2 R 4 5 ].7 8 T U 8.W X Y e `  ...^.2.5.l m n @.#.q r s $.u %.(.3.y z A =.C D E F ",
". + G # $ H & * = K -.> L ~.) ! 1.M ] ^ / ( ,.: < [ } '.9.Q R 4 5 6 7 8 T U V W c Y e f g ..^.j k l /.6.0.p ).r s t u %.(.x y &.*.=.!.:.E F ",
". a.G [.$ H & J b.- ; > L ' c.! ~ { ] ^ / ( ,.{.< [ } '.9.Q R 4 5 6 7 8 T 0 8.W c Y e f g ..^.2.k l m n @.p ).d.e.$.f.%.(.x y z *.g.!.:.E F ",
". + G # $ H & * = - -.> L ~.) h.1.M i.^ N 7.,.{.j.[ } '.1 Q 3 4 k.6 l.m.T 0 V W c d e ` g ..^.2.5.l m n @.p q d.s t u %.(.3.y &.A =.!.:.E F ",
". + G # $ n.& J b.- -.> L ~.) h.1.{ i.^ N ( ,.{.j.[ } | 9.o.R p.5 6 l.8 T U V W c d e f g ..^.2.k l m 6.0.p ).r s t u q.(.3.r.&.A g.!.:.E F ",
". + G # }.H & J = - -.> s.~.c.! 1.{ i.^ / 7.,.{.< [ } | 9.Q R p.k.6 7 m.T U V W c d e f g ..^.2.5.t.m n @.p ).d.s $.u %.(.3.y &.A g.!.:.u.F ",
". + G # }.H & J = - -.> L ~.c.! 1.{ i.v./ 7.w.{.< x.} '.1 o.R p.5 6 l.m.T 0 8.W c Y y.f  ...^.2.5.l m n @.p ).d.s t u %.(.3.y &.A g.!.:.u.F ",
". + G # $ n.& J = - -.> L ~.) ! 1.M ] ^ / ( ,.{.j.x.} '.9.o.R p.k.6 7 m.T 0 8.W c d y.f g z.^.2.k l m 6.0.A.).d.B.t f.%.(.3.y &.A g.!.:.u.C.",
". a.G # }.H & J b.D.-.> s.~.c.! E.{ ] ^ / ( w.{.j.[ } '.9.Q R 4 k.6 l.8 T 0 8.F.G.Y e f g z.^.2.5.l m n 0.p ).r s t u %.(.x r.&.A g.!.:.u.F "};
