/* XPM */
static char *c1[] = {
/* columns rows colors chars-per-pixel */
"70 15 70 1 ",
"  c #1E1317",
". c #3A4F1B",
"X c #3A5024",
"o c #1B772B",
"O c #5E682F",
"+ c #152A68",
"@ c #4F465C",
"# c #4F485E",
"$ c #9C735B",
"% c #8D4571",
"& c #8F6C73",
"* c #926C74",
"= c #B97976",
"- c #6D9538",
"; c #5CA320",
": c #3C8E44",
"> c #6D835D",
", c #35D140",
"< c #5ECA54",
"1 c #77DA4E",
"2 c #7FFD59",
"3 c #BEFF35",
"4 c #CFCA38",
"5 c #848D7E",
"6 c #A1C044",
"7 c #B1CE49",
"8 c #A6E855",
"9 c #A1C362",
"0 c #FFFF76",
"q c #463684",
"w c #6A3FCF",
"e c #054AFF",
"r c #4E5CDA",
"t c #7241D1",
"y c #4870E2",
"u c #4172FF",
"i c #B216BB",
"p c #8D608C",
"a c #BB7190",
"s c #C76694",
"d c #D96594",
"f c #BC3BE4",
"g c #E708DA",
"h c #C73AE9",
"j c #BE4DDA",
"k c #FB5ED7",
"l c #CE6DCB",
"z c #569896",
"x c #73BB81",
"c c #75BC83",
"v c #52B5AC",
"b c #7381D4",
"n c #5D8FED",
"m c #6293EB",
"M c #8AA084",
"N c #91A9AD",
"B c #92A1BC",
"V c #C38D89",
"C c #FFABB6",
"Z c #A2D887",
"A c #ADD98A",
"S c #B6CFAF",
"D c #BADCBC",
"F c #F2DF90",
"G c #F4DF90",
"H c #DFEC9A",
"J c #CADCA7",
"K c #8584DC",
"L c #85A3E0",
"P c #CB97C4",
/* pixels */
"#@zv5$VCPuyX.1274=ip,<GFAZSDlgjLKwtfhq+>6MbBHJmn83O %ka;-&*sdreN09o:cx",
"#@zv5$VCPuyX.1274=ip,<GFAZSDlgjLKwtfhq+>6MbBHJmn83O %ka;-&*sdreN09o:cx",
"#@zv5$VCPuyX.1274=ip,<GFAZSDlgjLKwtfhq+>6MbBHJmn83O %ka;-&*sdreN09o:cx",
"#@zv5$VCPuyX.1274=ip,<GFAZSDlgjLKwtfhq+>6MbBHJmn83O %ka;-&*sdreN09o:cx",
"#@zv5$VCPuyX.1274=ip,<GFAZSDlgjLKwtfhq+>6MbBHJmn83O %ka;-&*sdreN09o:cx",
"#@zv5$VCPuyX.1274=ip,<GFAZSDlgjLKwtfhq+>6MbBHJmn83O %ka;-&*sdreN09o:cx",
"#@zv5$VCPuyX.1274=ip,<GFAZSDlgjLKwtfhq+>6MbBHJmn83O %ka;-&*sdreN09o:cx",
"#@zv5$VCPuyX.1274=ip,<GFAZSDlgjLKwtfhq+>6MbBHJmn83O %ka;-&*sdreN09o:cx",
"#@zv5$VCPuyX.1274=ip,<GFAZSDlgjLKwtfhq+>6MbBHJmn83O %ka;-&*sdreN09o:cx",
"#@zv5$VCPuyX.1274=ip,<GFAZSDlgjLKwtfhq+>6MbBHJmn83O %ka;-&*sdreN09o:cx",
"#@zv5$VCPuyX.1274=ip,<GFAZSDlgjLKwtfhq+>6MbBHJmn83O %ka;-&*sdreN09o:cx",
"#@zv5$VCPuyX.1274=ip,<GFAZSDlgjLKwtfhq+>6MbBHJmn83O %ka;-&*sdreN09o:cx",
"#@zv5$VCPuyX.1274=ip,<GFAZSDlgjLKwtfhq+>6MbBHJmn83O %ka;-&*sdreN09o:cx",
"#@zv5$VCPuyX.1274=ip,<GFAZSDlgjLKwtfhq+>6MbBHJmn83O %ka;-&*sdreN09o:cx",
"#@zv5$VCPuyX.1274=ip,<GFAZSDlgjLKwtfhq+>6MbBHJmn83O %ka;-&*sdreN09o:cx"
};
