/* XPM */
static char *magick[] = {
/* columns rows colors chars-per-pixel */
"70 15 76 1",
"  c #1c0301",
". c #1d0302",
"X c #1d0402",
"o c #250000",
"O c #300000",
"+ c #3a0000",
"@ c #430000",
"# c #4e0000",
"$ c #590000",
"% c #5b3616",
"& c #640000",
"* c #6f0000",
"= c #790000",
"- c #70441e",
"; c #72451f",
": c #73461f",
"> c #734720",
", c #830000",
"< c #8e0000",
"1 c #990000",
"2 c #a40000",
"3 c #af0000",
"4 c #ba0000",
"5 c #c20000",
"6 c #cd0000",
"7 c #d80000",
"8 c #e20000",
"9 c #ed0000",
"0 c #f80000",
"q c #fe0500",
"w c #ff0f00",
"e c #ff1a00",
"r c #ff2400",
"t c #ff3000",
"y c #ff3900",
"u c #ff4200",
"i c #ff4d00",
"p c #ff5800",
"a c #ff6300",
"s c #ff6e00",
"d c #ff7800",
"f c #ff8300",
"g c #ff8d00",
"h c #ff9800",
"j c #ffa300",
"k c #ffae00",
"l c #ffb800",
"z c #ffc100",
"x c #ffcc00",
"c c #ffd700",
"v c #ffe200",
"b c #ffed00",
"n c #fff700",
"m c #fffe04",
"M c #ffff0e",
"N c #ffff19",
"B c #ffff24",
"V c #ffff2e",
"C c #ffff3a",
"Z c #ffff42",
"A c #ffff4d",
"S c #ffff57",
"D c #ffff62",
"F c #ffff6d",
"G c #ffff78",
"H c #ffff82",
"J c #ffff8d",
"K c #ffff97",
"L c #ffffa2",
"P c #ffffad",
"I c #ffffb7",
"U c #ffffc0",
"Y c #ffffcb",
"T c #ffffd6",
"R c LightYellow",
"E c #ffffed",
/* pixels */
":.oO+@#$&*=,<1234567890qwertyuipasdfghjklzxcvbnmMNBVCZASDFGHJKLPIUYTRE",
":.oO+@#$&*=,<1234567890qwertyuipasdfghjklzxcvbnmMNBVCZASDFGHJKLPIUYTRE",
":.oO+@#$&*=,<1234567890qwertyuipasdfghjklzxcvbnmMNBVCZASDFGHJKLPIUYTRE",
":.oO+@#$&*=,<1234567890qwertyuipasdfghjklzxcvbnmMNBVCZASDFGHJKLPIUYTRE",
":.oO+@#$&*=,<1234567890qwertyuipasdfghjklzxcvbnmMNBVCZASDFGHJKLPIUYTRE",
":.oO+@#$&*=,<1234567890qwertyuipasdfghjklzxcvbnmMNBVCZASDFGHJKLPIUYTRE",
":.oO+@#$&*=,<1234567890qwertyuipasdfghjklzxcvbnmMNBVCZASDFGHJKLPIUYTRE",
":.oO+@#$&*=,<1234567890qwertyuipasdfghjklzxcvbnmMNBVCZASDFGHJKLPIUYTRE",
">XoO+@#$&*=,<1234567890qwertyuipasdfghjklzxcvbnmMNBVCZASDFGHJKLPIUYTRE",
"%.oO+@#$&*=,<1234567890qwertyuipasdfghjklzxcvbnmMNBVCZASDFGHJKLPIUYTRE",
":.oO+@#$&*=,<1234567890qwertyuipasdfghjklzxcvbnmMNBVCZASDFGHJKLPIUYTRE",
":XoO+@#$&*=,<1234567890qwertyuipasdfghjklzxcvbnmMNBVCZASDFGHJKLPIUYTRE",
":.oO+@#$&*=,<1234567890qwertyuipasdfghjklzxcvbnmMNBVCZASDFGHJKLPIUYTRE",
":.oO+@#$&*=,<1234567890qwertyuipasdfghjklzxcvbnmMNBVCZASDFGHJKLPIUYTRE",
":.oO+@#$&*=,<1234567890qwertyuipasdfghjklzxcvbnmMNBVCZASDFGHJKLPIUYTRE"
};
