/* XPM */
static char * inferno_xpm[] = {
"70 15 83 1",
" 	c #010105",
".	c #02020F",
"+	c #050319",
"@	c #0B081F",
"#	c #130B28",
"$	c #160F2E",
"%	c #191437",
"&	c #1E163E",
"*	c #221746",
"=	c #28164D",
"-	c #2E1654",
";	c #33195B",
">	c #391B5F",
",	c #3F1B63",
"'	c #461C66",
")	c #4A1E69",
"!	c #4F1F69",
"~	c #561E6A",
"{	c #5B1E6C",
"]	c #61206E",
"^	c #68206D",
"/	c #6B216D",
"(	c #72226E",
"_	c #77256C",
":	c #7E276B",
"<	c #842669",
"[	c #892967",
"}	c #8E2A66",
"|	c #932C63",
"1	c #992D61",
"2	c #A02F61",
"3	c #A5325F",
"4	c #A9345D",
"5	c #B0365B",
"6	c #B63858",
"7	c #BC3A54",
"8	c #C03E4F",
"9	c #C5424F",
"0	c #CB444C",
"a	c #CF4648",
"b	c #D44B45",
"c	c #D94E42",
"d	c #DE533F",
"e	c #E1583A",
"f	c #E55A39",
"g	c #E96135",
"h	c #EC6734",
"i	c #EF6D31",
"j	c #F2722F",
"k	c #F4772F",
"l	c #F67D2D",
"m	c #F7842C",
"n	c #F88B2A",
"o	c #FB922D",
"p	c #FC982E",
"q	c #FBA02F",
"r	c #FCA632",
"s	c #FAAE36",
"t	c #FAB53A",
"u	c #F9BC40",
"v	c #FAC245",
"w	c #F8CA4A",
"x	c #F7D154",
"y	c #F5D85E",
"z	c #F4DF66",
"A	c #F2E872",
"B	c #F1ED7E",
"C	c #F3F38D",
"D	c #F7F89A",
"E	c #FBF9A8",
"F	c #561E6B",
"G	c #D94F42",
"H	c #DD543F",
"I	c #F4782F",
"J	c #F8C94A",
"K	c #F8D154",
"L	c #F27230",
"M	c #F67D2C",
"N	c #7F276B",
"O	c #812769",
"P	c #D14648",
"Q	c #F27130",
"R	c #822769",
" .+@#$%&*=-;>,')!~{]^/(_:<[}|1234567890abcdefghijklmnopqrstuvwxyzABCDE",
" .+@#$%&*=-;>,')!~{]^/(_:<[}|1234567890abcdefghijklmnopqrstuvwxyzABCDE",
" .+@#$%&*=-;>,')!~{]^/(_:<[}|1234567890abcdefghijklmnopqrstuvwxyzABCDE",
" .+@#$%&*=-;>,')!~{]^/(_:<[}|1234567890abcdefghijklmnopqrstuvwxyzABCDE",
" .+@#$%&*=-;>,')!F{]^/(_:<[}|1234567890abGHefghijIlmnopqrstuvJKyzABCDE",
" .+@#$%&*=-;>,')!F{]^/(_:<[}|1234567890abGHefghijIlmnopqrstuvJKyzABCDE",
" .+@#$%&*=-;>,')!F{]^/(_:<[}|1234567890abGHefghijIlmnopqrstuvJKyzABCDE",
" .+@#$%&*=-;>,')!F{]^/(_:<[}|1234567890abGHefghijIlmnopqrstuvJKyzABCDE",
" .+@#$%&*=-;>,')!F{]^/(_:<[}|1234567890abGHefghiLIMmnopqrstuvJKyzABCDE",
" .+@#$%&*=-;>,')!F{]^/(_:<[}|1234567890abGHefghiLIMmnopqrstuvJKyzABCDE",
" .+@#$%&*=-;>,')!F{]^/(_:<[}|1234567890abGHefghiLIMmnopqrstuvJKyzABCDE",
" .+@#$%&*=-;>,')!F{]^/(_N<[}|1234567890abGHefghiLIMmnopqrstuvJKyzABCDE",
" .+@#$%&*=-;>,')!F{]^/(_:O[}|1234567890PbcdefghiQkMmnopqrstuvwxyzABCDE",
" .+@#$%&*=-;>,')!F{]^/(_:R[}|1234567890PbcdefghiQkMmnopqrstuvwxyzABCDE",
" .+@#$%&*=-;>,')!F{]^/(_:R[}|1234567890PbcdefghiQkMmnopqrstuvwxyzABCDE"};
