/* XPM */
static char * magma_xpm[] = {
"70 15 342 2",
"  	c None",
". 	c #020303",
"+ 	c #03030B",
"@ 	c #050414",
"# 	c #08061A",
"$ 	c #0D0B1F",
"% 	c #111024",
"& 	c #16132A",
"* 	c #1A1535",
"= 	c #1E183E",
"- 	c #211944",
"; 	c #251B4C",
"> 	c #2B1D53",
", 	c #2F1C5B",
"' 	c #341C61",
") 	c #3B1F67",
"! 	c #43216C",
"~ 	c #46216C",
"{ 	c #4C216F",
"] 	c #542372",
"^ 	c #572575",
"/ 	c #5B2477",
"( 	c #602579",
"_ 	c #652878",
": 	c #6B2B76",
"< 	c #702C77",
"[ 	c #782E78",
"} 	c #7D2F78",
"| 	c #813179",
"1 	c #863279",
"2 	c #8C3479",
"3 	c #91357A",
"4 	c #963779",
"5 	c #9B3975",
"6 	c #A13C73",
"7 	c #A73E72",
"8 	c #AE4274",
"9 	c #B04273",
"0 	c #B94372",
"a 	c #BF4473",
"b 	c #C2476F",
"c 	c #C74B6C",
"d 	c #CC4F6B",
"e 	c #D2536B",
"f 	c #D55669",
"g 	c #D85A64",
"h 	c #DF6063",
"i 	c #E26462",
"j 	c #E46964",
"k 	c #E76E65",
"l 	c #E97466",
"m 	c #ED7B67",
"n 	c #F08267",
"o 	c #F08867",
"p 	c #F1906C",
"q 	c #F29670",
"r 	c #F59C75",
"s 	c #F5A57B",
"t 	c #F3AB7E",
"u 	c #F6B083",
"v 	c #F7B688",
"w 	c #F6BD8B",
"x 	c #F9C491",
"y 	c #F8CD98",
"z 	c #F9D39E",
"A 	c #FAD9A4",
"B 	c #FADFAA",
"C 	c #F9E5AE",
"D 	c #F9EFB7",
"E 	c #FAF3C0",
"F 	c #020305",
"G 	c #02010E",
"H 	c #050218",
"I 	c #0A071F",
"J 	c #100D28",
"K 	c #15122E",
"L 	c #1A1635",
"M 	c #1D173C",
"N 	c #211A44",
"O 	c #241B4C",
"P 	c #281C55",
"Q 	c #2F1C5E",
"R 	c #341C64",
"S 	c #3B1E6C",
"T 	c #401E6F",
"U 	c #452072",
"V 	c #4B2177",
"W 	c #52227A",
"X 	c #56237C",
"Y 	c #5B237D",
"Z 	c #60237C",
"` 	c #67257F",
" .	c #6D277F",
"..	c #722881",
"+.	c #762B80",
"@.	c #7B2D83",
"#.	c #812E81",
"$.	c #882F80",
"%.	c #8E3081",
"&.	c #95317F",
"*.	c #99327C",
"=.	c #9F347D",
"-.	c #A5367D",
";.	c #AB3A7B",
">.	c #B13A79",
",.	c #B83B75",
"'.	c #BD3D74",
").	c #C33F74",
"!.	c #C84071",
"~.	c #CF436E",
"{.	c #D4466D",
"].	c #D94869",
"^.	c #DE4D65",
"/.	c #E45264",
"(.	c #E95663",
"_.	c #ED5861",
":.	c #F35E5F",
"<.	c #F4645F",
"[.	c #F56A60",
"}.	c #F8715F",
"|.	c #F9785F",
"1.	c #FA7F64",
"2.	c #FD8766",
"3.	c #FC8E69",
"4.	c #FB956E",
"5.	c #FE9B73",
"6.	c #FFA279",
"7.	c #FCAA7D",
"8.	c #FDAF80",
"9.	c #FDB584",
"0.	c #FBBD87",
"a.	c #FCC48C",
"b.	c #FCCB93",
"c.	c #FCD198",
"d.	c #FDD79F",
"e.	c #FDDEA7",
"f.	c #FDE6AD",
"g.	c #FBEEB3",
"h.	c #FCF4B9",
"i.	c #FDFBC9",
"j.	c #010104",
"k.	c #01020F",
"l.	c #030418",
"m.	c #09081E",
"n.	c #100E24",
"o.	c #15122D",
"p.	c #191635",
"q.	c #1C173A",
"r.	c #201942",
"s.	c #2E1C5B",
"t.	c #351C63",
"u.	c #391E6A",
"v.	c #401F6F",
"w.	c #452173",
"x.	c #4B2176",
"y.	c #502379",
"z.	c #55237B",
"A.	c #5A247C",
"B.	c #5F237D",
"C.	c #65257D",
"D.	c #6C277F",
"E.	c #71297F",
"F.	c #772B7F",
"G.	c #7D2C7F",
"H.	c #812D7F",
"I.	c #86307F",
"J.	c #8E3180",
"K.	c #94317E",
"L.	c #99337C",
"M.	c #9D367C",
"N.	c #A6367C",
"O.	c #AB397B",
"P.	c #B13C77",
"Q.	c #B63D77",
"R.	c #BE3D76",
"S.	c #C34075",
"T.	c #C94171",
"U.	c #CE446E",
"V.	c #D4476C",
"W.	c #D94968",
"X.	c #DF4E68",
"Y.	c #E45263",
"Z.	c #E85661",
"`.	c #EC5B62",
" +	c #F06061",
".+	c #F3665E",
"++	c #F66B61",
"@+	c #F87261",
"#+	c #F97863",
"$+	c #FA7F63",
"%+	c #FB8766",
"&+	c #FD8E69",
"*+	c #FE946D",
"=+	c #FE9B71",
"-+	c #FFA376",
";+	c #FDA97A",
">+	c #FFB07F",
",+	c #FEB783",
"'+	c #FEBD89",
")+	c #FDC48E",
"!+	c #FDCB93",
"~+	c #FFD199",
"{+	c #FED8A0",
"]+	c #FDE0A6",
"^+	c #FEE6AC",
"/+	c #FDEDB5",
"(+	c #FDF5BA",
"_+	c #FDFACA",
":+	c #1C173B",
"<+	c #201943",
"[+	c #56237B",
"}+	c #5B247C",
"|+	c #FFD7A0",
"1+	c #FEDFA6",
"2+	c #010205",
"3+	c #030419",
"4+	c #09081F",
"5+	c #0F0D24",
"6+	c #16132D",
"7+	c #191636",
"8+	c #271B55",
"9+	c #351C62",
"0+	c #391D69",
"a+	c #3F1F6F",
"b+	c #4C2076",
"c+	c #502279",
"d+	c #5C247E",
"e+	c #5F247F",
"f+	c #65267F",
"g+	c #6C2780",
"h+	c #712A7E",
"i+	c #762B7E",
"j+	c #7D2C7E",
"k+	c #822D7E",
"l+	c #882F7E",
"m+	c #8E307F",
"n+	c #9A337E",
"o+	c #9E357D",
"p+	c #A6367D",
"q+	c #AC397C",
"r+	c #B23B79",
"s+	c #B83C77",
"t+	c #BE3C76",
"u+	c #C54075",
"v+	c #C94070",
"w+	c #CD446D",
"x+	c #D4476B",
"y+	c #DA4967",
"z+	c #DF4D67",
"A+	c #E55164",
"B+	c #E85562",
"C+	c #ED5C63",
"D+	c #F06161",
"E+	c #F56660",
"F+	c #F76A62",
"G+	c #FA7161",
"H+	c #FC7762",
"I+	c #FC7F64",
"J+	c #FD8666",
"K+	c #FF8D69",
"L+	c #FE946B",
"M+	c #FE9B6F",
"N+	c #FFA275",
"O+	c #FEA87A",
"P+	c #FFAF7F",
"Q+	c #FFB683",
"R+	c #FEBD88",
"S+	c #FEC48D",
"T+	c #FDCB92",
"U+	c #FED198",
"V+	c #FDDFA6",
"W+	c #FDEDB6",
"X+	c #FEF5BC",
"Y+	c #FDFBCA",
"Z+	c #040405",
"`+	c #02020B",
" @	c #020213",
".@	c #060617",
"+@	c #0D0C1D",
"@@	c #121023",
"#@	c #161329",
"$@	c #1A1636",
"%@	c #231A46",
"&@	c #251C4C",
"*@	c #2A1B54",
"=@	c #301C5A",
"-@	c #361F60",
";@	c #392263",
">@	c #3E2367",
",@	c #45236B",
"'@	c #4C236D",
")@	c #54226F",
"!@	c #572371",
"~@	c #5B2373",
"{@	c #612573",
"]@	c #672675",
"^@	c #6D2A78",
"/@	c #712D79",
"(@	c #742F79",
"_@	c #793179",
":@	c #7E3279",
"<@	c #83347A",
"[@	c #883677",
"}@	c #8D3975",
"|@	c #913A73",
"1@	c #953A72",
"2@	c #9B3E74",
"3@	c #A13F72",
"4@	c #A84372",
"5@	c #AC4471",
"6@	c #B3446F",
"7@	c #B9476E",
"8@	c #BD4C6F",
"9@	c #C24E6D",
"0@	c #C74F6A",
"a@	c #CD536B",
"b@	c #D45869",
"c@	c #D95B62",
"d@	c #DD6062",
"e@	c #E06564",
"f@	c #DE6C63",
"g@	c #E07263",
"h@	c #E67866",
"i@	c #E87D68",
"j@	c #E7836A",
"k@	c #E98B6D",
"l@	c #ED9171",
"m@	c #ED9874",
"n@	c #EF9F78",
"o@	c #F1A67E",
"p@	c #F3AB82",
"q@	c #F4B187",
"r@	c #F4B68B",
"s@	c #F5BE90",
"t@	c #F5C594",
"u@	c #F9CB9B",
"v@	c #F9D1A2",
"w@	c #FAD8A7",
"x@	c #FADEAC",
"y@	c #F9E7B2",
"z@	c #F8EFB9",
"A@	c #F9F4BE",
". + @ # $ % & * = - ; > , ' ) ! ~ { ] ^ / ( _ : < [ } | 1 2 3 4 5 6 7 8 9 0 a b c d e f g h i j k l m n o p q r s t u v w x y z A B C D E   ",
"F G H I J K L M N O P Q R S T U V W X Y Z `  ...+.@.#.$.%.&.*.=.-.;.>.,.'.).!.~.{.].^./.(._.:.<.[.}.|.1.2.3.4.5.6.7.8.9.0.a.b.c.d.e.f.g.h.i.",
"j.k.l.m.n.o.p.q.r.O P s.t.u.v.w.x.y.z.A.B.C.D.E.F.G.H.I.J.K.L.M.N.O.P.Q.R.S.T.U.V.W.X.Y.Z.`. +.+++@+#+$+%+&+*+=+-+;+>+,+'+)+!+~+{+]+^+/+(+_+",
"j.k.l.m.n.o.p.q.r.O P s.t.u.v.w.x.y.z.A.B.C.D.E.F.G.H.I.J.K.L.M.N.O.P.Q.R.S.T.U.V.W.X.Y.Z.`. +.+++@+#+$+%+&+*+=+-+;+>+,+'+)+!+~+{+]+^+/+(+_+",
"j.k.l.m.n.o.p.q.r.O P s.t.u.v.w.x.y.z.A.B.C.D.E.F.G.H.I.J.K.L.M.N.O.P.Q.R.S.T.U.V.W.X.Y.Z.`. +.+++@+#+$+%+&+*+=+-+;+>+,+'+)+!+~+{+]+^+/+(+_+",
"j.k.l.m.n.o.p.:+<+O P s.t.u.v.w.x.y.[+}+B.C.D.E.F.G.H.I.J.K.L.M.N.O.P.Q.R.S.T.U.V.W.X.Y.Z.`. +.+++@+#+$+%+&+*+=+-+;+>+,+'+)+!+~+|+1+^+/+(+_+",
"j.k.l.m.n.o.p.:+<+O P s.t.u.v.w.x.y.[+}+B.C.D.E.F.G.H.I.J.K.L.M.N.O.P.Q.R.S.T.U.V.W.X.Y.Z.`. +.+++@+#+$+%+&+*+=+-+;+>+,+'+)+!+~+|+1+^+/+(+_+",
"j.k.l.m.n.o.p.:+<+O P s.t.u.v.w.x.y.[+}+B.C.D.E.F.G.H.I.J.K.L.M.N.O.P.Q.R.S.T.U.V.W.X.Y.Z.`. +.+++@+#+$+%+&+*+=+-+;+>+,+'+)+!+~+|+1+^+/+(+_+",
"j.k.l.m.n.o.p.:+<+O P s.t.u.v.w.x.y.[+}+B.C.D.E.F.G.H.I.J.K.L.M.N.O.P.Q.R.S.T.U.V.W.X.Y.Z.`. +.+++@+#+$+%+&+*+=+-+;+>+,+'+)+!+~+|+1+^+/+(+_+",
"j.k.l.m.n.o.p.:+<+O P s.t.u.v.w.x.y.[+}+B.C.D.E.F.G.H.I.J.K.L.M.N.O.P.Q.R.S.T.U.V.W.X.Y.Z.`. +.+++@+#+$+%+&+*+=+-+;+>+,+'+)+!+~+|+1+^+/+(+_+",
"j.k.l.m.n.o.p.:+<+O P s.t.u.v.w.x.y.[+}+B.C.D.E.F.G.H.I.J.K.L.M.N.O.P.Q.R.S.T.U.V.W.X.Y.Z.`. +.+++@+#+$+%+&+*+=+-+;+>+,+'+)+!+~+|+1+^+/+(+_+",
"j.k.l.m.n.o.p.:+<+O P s.t.u.v.w.x.y.[+}+B.C.D.E.F.G.H.I.J.K.L.M.N.O.P.Q.R.S.T.U.V.W.X.Y.Z.`. +.+++@+#+$+%+&+*+=+-+;+>+,+'+)+!+~+|+1+^+/+(+_+",
"j.k.l.m.n.o.p.:+<+O P s.t.u.v.w.x.y.[+}+B.C.D.E.F.G.H.I.J.K.L.M.N.O.P.Q.R.S.T.U.V.W.X.Y.Z.`. +.+++@+#+$+%+&+*+=+-+;+>+,+'+)+!+~+|+1+^+/+(+_+",
"2+k.3+4+5+6+7+q.r.O 8+s.9+0+a+w.b+c+[+d+e+f+g+h+i+j+k+l+m+K.n+o+p+q+r+s+t+u+v+w+x+y+z+A+B+C+D+E+F+G+H+I+J+K+L+M+N+O+P+Q+R+S+T+U+{+V+f.W+X+Y+",
"Z+`+ @.@+@@@#@$@r.%@&@*@=@-@;@>@,@'@)@!@~@{@]@^@/@(@_@:@<@[@}@|@1@2@3@4@5@6@7@8@9@0@a@b@c@d@e@f@g@h@i@j@k@l@m@n@o@p@q@r@s@t@u@v@w@x@y@z@A@  "};
