/* XPM */
static char * levchenko_xpm[] = {
"70 15 177 2",
"  	c #800000",
". 	c #8F0000",
"+ 	c #9D0000",
"@ 	c #AC0000",
"# 	c #BB0000",
"$ 	c #C90000",
"% 	c #D80000",
"& 	c #E70000",
"* 	c #F60000",
"= 	c #FF0500",
"- 	c #FF1400",
"; 	c #FF2300",
"> 	c #FF3200",
", 	c #FF4100",
"' 	c #FF4F00",
") 	c #FF5E00",
"! 	c #FF6D00",
"~ 	c #FF7B00",
"{ 	c #FF8B00",
"] 	c #FF9900",
"^ 	c #FFA800",
"/ 	c #FFB600",
"( 	c #FFC500",
"_ 	c #FFD400",
": 	c #FFE200",
"< 	c #FFF100",
"[ 	c #FFFF00",
"} 	c #F0FF10",
"| 	c #E1FF1E",
"1 	c #D2FF2D",
"2 	c #C3FF3C",
"3 	c #B5FF4B",
"4 	c #A6FF59",
"5 	c #97FF68",
"6 	c #89FF76",
"7 	c #7AFF85",
"8 	c #6BFF94",
"9 	c #5CFFA2",
"0 	c #4DFFB1",
"a 	c #3EFFC0",
"b 	c #30FFCF",
"c 	c #22FFDD",
"d 	c #13FFEC",
"e 	c #04FFFB",
"f 	c #00F4FF",
"g 	c #00E6FF",
"h 	c #00D7FF",
"i 	c #00C8FF",
"j 	c #00BAFF",
"k 	c #00ABFF",
"l 	c #009CFF",
"m 	c #008EFF",
"n 	c #007FFF",
"o 	c #0071FF",
"p 	c #0061FF",
"q 	c #0053FF",
"r 	c #0044FF",
"s 	c #0036FF",
"t 	c #0027FF",
"u 	c #0017FF",
"v 	c #0009FF",
"w 	c #0000F9",
"x 	c #0000EA",
"y 	c #0000DC",
"z 	c #0000CD",
"A 	c #0000BE",
"B 	c #0000B0",
"C 	c #0000A1",
"D 	c #000093",
"E 	c #000084",
"F 	c #F50000",
"G 	c #FF3100",
"H 	c #FF4000",
"I 	c #FF5000",
"J 	c #FF8A00",
"K 	c #FFA700",
"L 	c #FFD300",
"M 	c #FEFF01",
"N 	c #F0FF0F",
"O 	c #D2FF2C",
"P 	c #C4FF3C",
"Q 	c #89FF77",
"R 	c #5CFFA3",
"S 	c #4EFFB1",
"T 	c #3FFFC0",
"U 	c #21FFDE",
"V 	c #12FFEC",
"W 	c #00F5FF",
"X 	c #0070FF",
"Y 	c #0035FF",
"Z 	c #0018FF",
"` 	c #0000BF",
" .	c #0000AF",
"..	c #AD0000",
"+.	c #CA0000",
"@.	c #E60000",
"#.	c #FF2200",
"$.	c #FF7C00",
"%.	c #FFB700",
"&.	c #FFE300",
"*.	c #FFF000",
"=.	c #FFFF01",
"-.	c #EFFF0F",
";.	c #B4FF4A",
">.	c #98FF67",
",.	c #30FFCE",
"'.	c #22FFDE",
").	c #04FFFA",
"!.	c #00C9FF",
"~.	c #00ACFF",
"{.	c #0026FF",
"].	c #0008FF",
"^.	c #000092",
"/.	c #000083",
"(.	c #810000",
"_.	c #FEFF00",
":.	c #D3FF2D",
"<.	c #B5FF4A",
"[.	c #88FF76",
"}.	c #4EFFB2",
"|.	c #21FFDD",
"1.	c #00D8FF",
"2.	c #009DFF",
"3.	c #0062FF",
"4.	c #D90000",
"5.	c #FFC400",
"6.	c #C4FF3B",
"7.	c #98FF68",
"8.	c #5DFFA2",
"9.	c #3FFFBF",
"0.	c #05FFFB",
"a.	c #00E5FF",
"b.	c #8E0000",
"c.	c #9E0000",
"d.	c #FF5D00",
"e.	c #FF6C00",
"f.	c #FF9800",
"g.	c #D3FF2C",
"h.	c #A6FF58",
"i.	c #31FFCF",
"j.	c #0000EB",
"k.	c #6BFF93",
"l.	c #5DFFA3",
"m.	c #0000FA",
"n.	c #FF1300",
"o.	c #C3FF3B",
"p.	c #A7FF59",
"q.	c #6CFF94",
"r.	c #31FFCE",
"s.	c #0000CE",
"t.	c #0080FF",
"u.	c #0000A2",
"v.	c #E1FF1D",
"w.	c #A7FF58",
"x.	c #97FF67",
"y.	c #7BFF85",
"z.	c #6CFF93",
"A.	c #008FFF",
"B.	c #7AFF84",
"C.	c #40FFC0",
"D.	c #14FFEC",
"E.	c #05FFFA",
"F.	c #0045FF",
"G.	c #000AFF",
"H.	c #4EFFB0",
"I.	c #000085",
"J.	c #BA0000",
"K.	c #00BBFF",
"L.	c #AB0000",
"M.	c #FF0400",
"N.	c #FFE100",
"O.	c #E2FF1D",
"P.	c #4FFFB1",
"Q.	c #00E7FF",
"R.	c #FF3F00",
"S.	c #E2FF1E",
"T.	c #0054FF",
"  . + @ # $ % & * = - ; > , ' ) ! ~ { ] ^ / ( _ : < [ } | 1 2 3 4 5 6 7 8 9 0 a b c d e f g h i j k l m n o p q r s t u v w x y z A B C D E ",
"  . + @ # $ % & F = - ; G H I ) ! ~ J ] K / ( L : < M N | O P 3 4 5 Q 7 8 R S T b U V e W g h i j k l m n X p q r Y t Z v w x y z `  .C D E ",
"  . + ..# +.% @.* = - #.> H ' ) ! $.J ] K %.( _ &.*.=.-.| O P ;.4 >.6 7 8 9 S T ,.'.d ).f g h !.j ~.l m n o p q r s {.u ].w x y z A  .C ^./.",
"(.. + ..# +.% & F = - #.G H ' ) ! $.J ] K %.( _ : < _.N | :.2 <.4 >.[.7 8 9 }.T b |.d e W g 1.!.j k 2.m n X 3.q r Y t Z ].w x y z A B C ^.E ",
"(.. + ..# +.4.& F = - #.> H ' ) ! $.J ] ^ / 5.L &.< _.N | :.6.<.4 7.6 7 8 8.S 9.b c d 0.f a.h !.j k l m n X p q r s {.Z v w x y z A  .C ^.E ",
"  b.c.@ # $ % & * = - ; > H ' d.e.$.J f.^ / ( L &.*.[ N | g.P ;.h.7.6 7 8 9 S T i.|.d e f g h !.j k 2.m n X p q r Y {.Z v w j.y z A B C D E ",
"  . + @ # +.% @.* = - #.G H ' ) ! $.J ] K / 5.L : < _.N | O 6.<.4 5 Q 7 k.l.S 9.b '.d 0.W g h !.j k 2.m n o 3.q r s t Z v m.j.y z A B C ^.E ",
"  . + @ # $ % @.* = n.; > H ' ) ! $.J ] K / ( L : *.=.N | 1 o.<.p.5 6 7 q.l.S T r.c d e f g h !.j k 2.m n o p q r Y {.u v w j.y s.` B C D E ",
"  . + @ # +.% & F = - ; G H ' ) ! $.J ] K / ( _ : *.[ N | 1 6.<.p.7.Q 7 8 8.S 9.b U d e W g 1.i j ~.l m t.o 3.q r Y t Z v w j.y z ` B u.^.E ",
"  . + @ # $ % @.F = - ; G H ' d.! ~ J ] K / ( L : < [ N v.:.P <.w.x.6 y.z.8.S T r.'.d 0.W g 1.!.j k l A.t.X 3.q r Y {.Z v m.j.y s.A B u.^.E ",
"  . + @ # $ % & F = - #.> H ' ) e.~ J f.^ / 5.L : *.M N | g.6.<.p.>.6 B.8 8.S C.r.|.D.E.W g h !.j ~.2.m t.X 3.q F.Y t Z G.w j.y z ` B C ^.E ",
"  b.c.@ # +.% & F = - #.G H ' ) e.~ J ] ^ / 5._ : *.[ N | :.o.<.p.>.6 7 8 9 H.9.r.c d 0.W g 1.!.j k 2.m n X 3.q r Y t Z v w x y s.` B C D I.",
"  b.+ @ J.$ % & * = - #.G H ' ) e.~ J ] ^ / ( L : *.=.N v.g.6.<.p.>.6 7 z.8.S C.i.c D.E.W g h !.K.~.l m n o 3.q r s {.Z v m.j.y z ` B C D I.",
"  b.+ L.J.$ % & F M.- #.G H ' d.e.~ J f.K / 5.L N.< [ N O.:.6.<.w.>.6 7 q.8.P.T r.c d ).W Q.h !.K.k 2.m n X 3.q F.s t Z G.w j.y s.` B u.D E ",
"  b.c.@ # $ % @.* = - ; G R.' d.e.~ J f.K / 5.L N.< [ N S.1 6.<.p.>.6 y.q.8.P.9.r.c d E.W Q.1.!.j ~.2.A.t.o 3.T.F.Y t Z G.m.j.y s.` B C D E "};
