/* XPM */
static char *new_new_colourbar_pink_to_green[] = {
/* columns rows colors chars-per-pixel */
"70 15 32 1 ",
"  c #81FE81",
". c #84FB84",
"X c #8AF58A",
"o c #8FF08F",
"O c #93EC93",
"+ c #97E897",
"@ c #9AE59A",
"# c #9EE19E",
"$ c #A3DCA3",
"% c #A7D8A7",
"& c #ABD4AB",
"* c #AED1AE",
"= c #B4CBB4",
"- c #B5CAB5",
"; c #BBC4BB",
": c #BFC0BF",
"> c #C2BDC2",
", c #C6B9C6",
"< c #C8B7C8",
"1 c #CBB4CB",
"2 c #D3ACD3",
"3 c #D6A9D6",
"4 c #D8A7D8",
"5 c #DCA3DC",
"6 c #E19EE1",
"7 c #E798E7",
"8 c #EA95EA",
"9 c #EE91EE",
"0 c #F38CF3",
"q c #F58AF5",
"w c #F986F9",
"e c #FE81FE",
/* pixels */
"eewwwq009988877666555442212111<,,>:::;;====***&%%$$$##@@++OOOooXXX..  ",
"eewwqq00999877766655442222211<<<,>>:;;;====***&&%%$#$##@@++OooXoXX..  ",
"eeewwq090998777665655444221111<,>>>::;;=====*&&%%%$$###@+++OOooXX.... ",
"eewwqq00998887766655444222121<<,,>::;;:===***&&&%$$$$#@@++OOooXoXXX.  ",
"eeewqq009988777666554442221111<,,>:::;;====**&&&%$$$##@@@++OOooXXX... ",
"eewwqq000998777666554422412111<,>>::;;;=====*&&%%%$#$##@++OOooXoXX..  ",
"eewwwqq09998877665655442221211<,,>>::;;=====**&&%%$$##@@++OOOooXX...  ",
"ewewqq00098877766655444222111<<<>>::;;:===***&&%%$$#$#@@@++OooXoXXX.. ",
"eewwqq099988877665554442222111<,,>>::;=;===***&&%%$#$##@++OOOooXXX..  ",
"eewwwq00999877766665542222111<<,>>::;;;====**&&%%%$$##@@+++OoooXXX... ",
"eeewqq000998777666554444222111<,>>:::;;====**&&&%$$#$#@@+++OOooXX...  ",
"eewwwq00998887766565542422211<<,,>>:;;;====**&&%%%$$###@@+OOoooXXXX.  ",
"ewewqqq0099877766555444222111<<<>>:::;=:===**&&&%%$#$#@@+++OOooXXX..  ",
"eewwwq009988777666654242211211<<,>::;;;=;==***&%%$$$##@@++OOoooXXX..  ",
"eewwqq0099888776665554242221<<<,>>>::;=;===**&&&%%$#$#@@@+OOOooXO .   "
};
