/* XPM */
static char *magick[] = {
/* columns rows colors chars-per-pixel */
"70 15 70 1",
"  c #0207ff",
". c #0f00ff",
"X c #001bff",
"o c #0032ff",
"O c #2500ff",
"+ c #3b00ff",
"@ c #0046ff",
"# c #005cff",
"$ c #0072ff",
"% c #5000ff",
"& c #6600ff",
"* c #7b00ff",
"= c #03ff02",
"- c #00ff12",
"; c #16ff00",
": c #00ff2b",
"> c #00ff3f",
", c #2dff00",
"< c #00ff55",
"1 c #00ff6b",
"2 c #00ff7f",
"3 c #42ff00",
"4 c #58ff00",
"5 c #6dff00",
"6 c #7eff00",
"7 c #0083ff",
"8 c #0097ff",
"9 c #00adff",
"0 c #00ff91",
"q c #00ffa5",
"w c #00ffbb",
"e c #00c2ff",
"r c #00d8ff",
"t c #00ffd0",
"y c #00eeff",
"u c #00ffe6",
"i c #00fcf9",
"p c #ff0603",
"a c #ff0012",
"s c #ff1800",
"d c #ff0027",
"f c #ff003d",
"g c #ff2f00",
"h c #ff0053",
"j c #ff0067",
"k c #ff0079",
"l c #ff4400",
"z c #ff5a00",
"x c #ff7000",
"c c #8c00ff",
"v c #9f00ff",
"b c #b600ff",
"n c #ff008d",
"m c #ff00a3",
"M c #ff00b6",
"N c #cd00ff",
"B c #d400ff",
"V c #ff00d1",
"C c #92ff00",
"Z c #a8ff00",
"A c #bdff00",
"S c #ff8200",
"D c #ff9400",
"F c #ffaa00",
"G c #d3ff00",
"H c #ffc000",
"J c #ffd500",
"K c #e8ff00",
"L c #ffeb00",
"P c #fafb00",
/* pixels */
"BNbvc*&%+O. Xo@#$789eryiutwq021<>:-=;,3456CZAGKPLJHFDSxzlgspadfhjknmMV",
"BNbvc*&%+O. Xo@#$789eryiutwq021<>:-=;,3456CZAGKPLJHFDSxzlgspadfhjknmMV",
"BNbvc*&%+O. Xo@#$789eryiutwq021<>:-=;,3456CZAGKPLJHFDSxzlgspadfhjknmMV",
"BNbvc*&%+O. Xo@#$789eryiutwq021<>:-=;,3456CZAGKPLJHFDSxzlgspadfhjknmMV",
"BNbvc*&%+O. Xo@#$789eryiutwq021<>:-=;,3456CZAGKPLJHFDSxzlgspadfhjknmMV",
"BNbvc*&%+O. Xo@#$789eryiutwq021<>:-=;,3456CZAGKPLJHFDSxzlgspadfhjknmMV",
"BNbvc*&%+O. Xo@#$789eryiutwq021<>:-=;,3456CZAGKPLJHFDSxzlgspadfhjknmMV",
"BNbvc*&%+O. Xo@#$789eryiutwq021<>:-=;,3456CZAGKPLJHFDSxzlgspadfhjknmMV",
"BNbvc*&%+O. Xo@#$789eryiutwq021<>:-=;,3456CZAGKPLJHFDSxzlgspadfhjknmMV",
"BNbvc*&%+O. Xo@#$789eryiutwq021<>:-=;,3456CZAGKPLJHFDSxzlgspadfhjknmMV",
"BNbvc*&%+O. Xo@#$789eryiutwq021<>:-=;,3456CZAGKPLJHFDSxzlgspadfhjknmMV",
"BNbvc*&%+O. Xo@#$789eryiutwq021<>:-=;,3456CZAGKPLJHFDSxzlgspadfhjknmMV",
"BNbvc*&%+O. Xo@#$789eryiutwq021<>:-=;,3456CZAGKPLJHFDSxzlgspadfhjknmMV",
"BNbvc*&%+O. Xo@#$789eryiutwq021<>:-=;,3456CZAGKPLJHFDSxzlgspadfhjknmMV",
"BNbvc*&%+O. Xo@#$789eryiutwq021<>:-=;,3456CZAGKPLJHFDSxzlgspadfhjknmMV"
};
