/* XPM */
static char *virid_light[] = {
/* columns rows colors chars-per-pixel */
"70 15 70 1 ",
"  c #76EE2C",
". c #69EC35",
"X c #35DF68",
"o c #31DC6E",
"O c #2DD974",
"+ c #2BD77A",
"@ c #2AD47F",
"# c #3BE261",
"$ c #5DEB40",
"% c #53E949",
"& c #49E752",
"* c #42E45A",
"= c #84EE26",
"- c #91EF25",
"; c #9EEF29",
": c #A9F02D",
"> c #B4F032",
", c #BEF136",
"< c #C8F139",
"1 c #D1F139",
"2 c #DBF238",
"3 c #F5F328",
"4 c #E4F236",
"5 c #EDF330",
"6 c #4B74BF",
"7 c #477CBB",
"8 c #467EBA",
"9 c #4978BD",
"0 c #6E38C3",
"q c #6C3EC5",
"w c #7132C2",
"e c #5E58C7",
"r c #5B5CC7",
"t c #6A43C6",
"y c #6749C7",
"u c #644EC7",
"i c #6153C7",
"p c #5565C4",
"a c #5861C6",
"s c #5369C3",
"d c #506DC2",
"f c #4D71C0",
"g c #39B59F",
"h c #34BB9A",
"j c #33BE98",
"k c #37B89D",
"l c #3FA7A7",
"z c #3EAAA5",
"x c #3DADA4",
"c c #3AB2A1",
"v c #3BB0A2",
"b c #4193AF",
"n c #4196AE",
"m c #419CAB",
"M c #409EAA",
"N c #4199AD",
"B c #4385B6",
"V c #428BB3",
"C c #428DB2",
"Z c #4388B5",
"A c #4582B8",
"S c #4290B0",
"D c #40A1A9",
"F c #40A4A8",
"G c #2BCB8B",
"H c #2ACE88",
"J c #2DC88F",
"K c #29D183",
"L c #2EC592",
"P c #30C295",
/* pixels */
"w0qtyuierapsdf6978ABBCCSbnNmMDFlzxvggkhjPLJGHK@+OoX#*&%$. =-;:>,<12453",
"w0qtyuierapsdf6978ABBVCSbnNmMDFlzxvvgkhjPLJGHK@+OoX#*&%$. =-;:>,<12453",
"w0qtyuierapsdf6978ABZVCSbnNmMDllzxxggkhjPLJGHK@+OoX#*&%$. =-;:>,<12453",
"w0qtyuierapsdf6978ABZCCSbnNmMDDlzxvvgkhjPLJGHK@+OoX#*&%$. =-;:>,<12453",
"w0qtyuierapsdf6978ABBVCSbnNmMDDlxxvcgkhjPLJGHK@+OoX#*&%$. =-;:>,<12453",
"w0qtyuierapsdf6978ABZVCSbnNmMDllzxvvgkhjPLJGHK@+OoX#*&%$. =-;:>,<12453",
"w0qtyuierapsdf6978BBZCCSbnNmMDllzxvggkhjPLJGHK@+OoX#*&%$. =-;:>,<12453",
"w0qtyuierapsdf6978ABBVCSbnNmMDDlzxvvgkhjPLJGHK@+OoX#*&%$. =-;:>,<12453",
"w0qtyuierapsdf6988ABBCCSbnNmMDFlzxvvgkhjPLJGHK@+OoX#*&%$. =-;:>,<12453",
"w0qtyuierapsdf6998ABBVCSbnNNMDFlzxvggkhjPLJGHK@+OoX#*&%$. =-;:>,<12453",
"w0qtyuierapsdf6988ABZVCSbnNMMDFlzxvvgkhjPLJGHK@+OoX#*&%$. =-;:>,<12453",
"w0qtyuierapsdf6998ABZCCSbnnMMDFlzxvcgkhjPLJGHK@+OoX#*&%$. =-;:>,<12453",
"w0qtyuierapsdf6978ABZVCSbnNmMDFlzxvckkhjPLJGHK@+OoX#*&%$. =-;:>,<12453",
"w0qtyuierapsdf6978AZZVCSbnNmMDFlzxvcgkhjPLJGHK@+OoX#*&%$. =-;:>,<12453",
"w0qtyuierapsdf6998AZZVCSbnNmMDFlzxvcgkhjPLJGHK@+OoX#*&%$. =-;:>,<12453"
};
